<?xml version="1.0" standalone="no"?>
<!DOCTYPE svg PUBLIC "-//W3C//DTD SVG 20010904//EN"
 "http://www.w3.org/TR/2001/REC-SVG-20010904/DTD/svg10.dtd">
<svg version="1.0" xmlns="http://www.w3.org/2000/svg"
 width="512.000000pt" height="512.000000pt" viewBox="0 0 512.000000 512.000000"
 preserveAspectRatio="xMidYMid meet">
<metadata>
Created by potrace 1.14, written by Peter Selinger 2001-2017
</metadata>
<g transform="translate(0.000000,512.000000) scale(0.100000,-0.100000)"
fill="#000000" stroke="none">
<path d="M515 5111 c-30 -13 -53 -43 -59 -76 -3 -17 -7 -97 -11 -180 -3 -82
-8 -184 -10 -225 -2 -41 -7 -131 -10 -200 -7 -155 -12 -258 -21 -425 -15 -292
-22 -285 267 -285 l191 0 34 34 c22 22 34 44 35 62 0 16 2 38 4 49 2 11 7 40
10 64 27 201 109 372 229 481 142 129 249 152 701 154 l220 1 0 -1770 c0
-1529 -3 -1857 -19 -1970 -12 -87 -41 -151 -87 -189 -79 -67 -152 -86 -354
-92 -171 -6 -203 -14 -224 -61 -7 -15 -10 -97 -8 -221 2 -216 6 -233 61 -252
46 -16 2134 -13 2166 3 51 25 58 59 56 273 l-1 196 -33 29 c-29 26 -40 29
-100 29 -154 1 -262 9 -318 25 -75 22 -148 67 -173 109 -22 34 -45 124 -57
216 -4 30 -8 677 -9 1438 -2 1523 3 1420 -65 1451 -35 16 -35 16 -36 84 0 62
4 72 28 68 15 -2 68 62 69 82 1 12 1 95 1 185 0 182 -6 201 -66 223 -34 12
-34 12 -33 75 0 35 6 65 11 67 18 7 608 0 656 -7 180 -26 304 -81 401 -176
130 -128 175 -233 219 -505 14 -92 35 -131 74 -145 18 -6 106 -10 218 -10
l188 2 30 28 c27 26 37 62 32 120 0 3 -3 73 -7 155 -3 83 -8 186 -10 230 -2
44 -7 139 -10 210 -24 559 -26 578 -43 607 -9 15 -29 32 -45 38 -36 12 -4061
13 -4092 1z"/>
<path d="M1764 2280 c-12 -4 -30 -20 -42 -34 -18 -23 -20 -42 -21 -161 -2
-165 9 -198 71 -217 34 -10 44 -9 73 6 46 25 55 58 55 205 0 131 -11 174 -48
196 -23 13 -63 16 -88 5z"/>
<path d="M1765 1669 c-64 -18 -65 -25 -65 -459 0 -335 2 -397 16 -425 28 -60
105 -71 152 -22 l27 28 2 412 c2 438 4 425 -47 460 -27 19 -40 20 -85 6z"/>
</g>
</svg>
